<svg xmlns="http://www.w3.org/2000/svg" viewBox="0 0 330.4 330.4"><defs><style>.cls-1{fill:#8ea09f;fill-rule:evenodd;}.cls-2{fill:#fff;}.cls-3{fill:#557677;}</style></defs><g id="texto"><path class="cls-1" d="M263.1,236.3l-90.6,90.4a10.4,10.4,0,0,1-14.6,0L67.3,236.3a138.2,138.2,0,1,1,195.8,0Z"/><ellipse class="cls-2" cx="164" cy="136.7" rx="116.2" ry="115.9"/><path class="cls-3" d="M192.2,181.6h0c-4,2-7.3,2.3-8.8.2a2.1,2.1,0,0,1-.4-1.1h-.1v-.6h0a8.1,8.1,0,0,1,1-3.5c5.6-10.1,22.8-30.4,22.8-48.6s-4.6-27.1-8.5-33.7c-.7-1.3-1.8-3-2.5-4.6h0a4,4,0,0,1,3.7-5.5,2,2,0,0,1,1.1.2h.1a25.7,25.7,0,0,1,6.8,3.7c10.6,8,23.9,25.8,23.9,39.9,0,24.4-27.8,48.5-39.1,53.7m-43,4.4a1.9,1.9,0,0,1-.8,1.8,21.2,21.2,0,0,1-5.2,2.5,42.7,42.7,0,0,1-11.2,2c-19,1.4-32.1-14.4-32.9-24.9v-.6a5.5,5.5,0,0,1,.1-1.8,8.1,8.1,0,0,1,7.5-6.9,8.3,8.3,0,0,1,7.6,3.9h0a1.6,1.6,0,0,0,.4.7l1.1,2.2a56.1,56.1,0,0,0,3.4,6.3c6.8,10.2,15.8,12.6,23.9,13a18.1,18.1,0,0,0,3.4-.1h.6a2.1,2.1,0,0,1,2.1,1.9m24.5-46.4c-6.9,13.3-21.2,19.5-28,14.4s-11.3-16.7-7-25.2c5.6-10.8,21.3-13.8,30.2-9.5,7.3,3.5,9.3,11.8,4.8,20.3m7.5-37.6c-17.8-8.6-49.2-2.6-60.3,19.1-8.6,16.9.8,40.4,13.9,50.3s42.2-2.1,56.1-28.9c8.9-17,4.9-33.5-9.7-40.5"/></g></svg>