<svg xmlns="http://www.w3.org/2000/svg" viewBox="0 0 330.4 330.4"><defs><style>.cls-1{fill:#8ea09f;fill-rule:evenodd;}.cls-2{fill:#fff;}.cls-3{fill:#36f;}.cls-4{fill:#557677;}</style></defs><g id="texto"><path class="cls-1" d="M262.9,236.4l-90.4,90.4a10.4,10.4,0,0,1-14.6,0L67.5,236.4C13.6,182.5,13.6,95,67.5,41a138.3,138.3,0,0,1,195.4,0C316.8,95,316.8,182.5,262.9,236.4Z"/><circle class="cls-2" cx="164" cy="136.7" r="116" transform="translate(-10.2 260.2) rotate(-75.1)"/><path class="cls-3" d="M120.8,107.7a25.1,25.1,0,0,0-3.4-.3c3.3,4.1,3.5,7.8.8,12l1.4.4c5.4,2,8.4,7.2,7.1,12.3a10.6,10.6,0,0,1-12,8.3c-5.2-.6-9-5.2-9-11-.1-2.3.1-4.6-.1-6.9a12.4,12.4,0,0,0-1.1-4.2,8.7,8.7,0,0,1,.1-9.4,5.7,5.7,0,0,0,1.1-2.5c0-3.9.1-7.8-.1-11.6a5.9,5.9,0,0,0-6.2-5.9c-3.4.1-5.8,2.5-5.8,6.2-.1,11.8-.2,23.6,0,35.4a22.7,22.7,0,0,0,21.7,22.1c11.4.4,21.9-8.1,23.3-18.9C140.3,121.1,132.8,110.2,120.8,107.7Zm115.6,28.7c4.4,0,6.4-2.2,6-6.7a18.9,18.9,0,0,0-24.3-16.8c-8.2,2.2-13.6,9.1-14.5,18.1s3.5,16.7,10.7,20.2,18.3,2.7,23.9-2.4a4.6,4.6,0,0,0,.8-6.1c-1.3-1.8-3.7-2.2-6-1a23,23,0,0,1-4.4,2.3c-6.8,2.4-13.4-1.5-13.6-7.3l3-.2Zm-21.6-6.8a8.5,8.5,0,0,1,8.2-8.7c4.6-.3,8.1,3.2,8.6,8.7Zm-15.9-11c0-3.9-2.2-6.3-5.5-6.4s-5.5,2.4-5.5,6.3c-.1,5.6.1,11.1-.1,16.7s-5,9.6-10.1,7.4c-3.6-1.5-4.2-4.7-4.2-8.1-.2-5.5,0-10.9-.1-16.4-.1-3.6-2.2-5.8-5.4-5.9a5.5,5.5,0,0,0-5.6,5.7c0,7.8,0,15.7.4,23.4s5.5,11.6,12.7,11.8c4.9.1,8.7-2.2,12-6.1,1.3,4.5,3.2,6.1,6.6,5.7s4.8-2.7,4.8-7Zm-43.2-14a94.5,94.5,0,0,0-.3-10.6c-.3-2.9-2.8-4.6-5.7-4.4a5.2,5.2,0,0,0-4.8,5.3c-.1,17.5-.1,35,0,52.6,0,3.3,2.8,5.4,6,5.1s4.8-2.6,4.8-6.4c.1-8.3,0-16.6.1-24.8v-5.6C155.8,112.1,155.8,108.4,155.7,104.6Zm5.2,57.9a14.4,14.4,0,0,0-6-3.7c-4-1.3-7,1-9.8,3.9-.2-.6-.2-.9-.3-1.2l-1.5-2.6c-.4.9-1.1,1.8-1.1,2.6-.1,7.6-.1,15.1,0,22.7,0,.7.9,1.4,1.4,2.1s1.1-1.4,1.2-2.1c.1-2.6,0-5.2,0-8.3,5.6,4.9,11,5.3,15,1.6S164.4,166.6,160.9,162.5Zm-8.4,15.2c-4.2,0-7.7-3.8-7.7-8.6a8,8,0,0,1,7.7-8.1c4.4-.1,7.6,3.4,7.6,8.5S156.9,177.7,152.5,177.7ZM113,170.3c.9,0,2.4-1.1,2.4-1.8.6-5.7-5-10.8-10.7-9.9a9.6,9.6,0,0,0-8.3,7.5c-1.2,4.7-.2,8.8,3.7,12a10.9,10.9,0,0,0,11.8.6,8.7,8.7,0,0,0,2.4-3c-1.4-1.7-2.4.3-3.4.8-5.5,3.1-11.6.1-11.7-6.1h2.7C105.6,170.4,109.3,170.5,113,170.3Zm-10.9-8.2c2.1-1.7,4.5-1.6,6.8-.5s3.5,3.6,3.7,6.5H99.2C98.8,165.4,100.1,163.6,102.1,162.1Zm99.3,6.3a9.6,9.6,0,0,0-17.9-5.1c-2.6,4.4-2,10.5,1.5,13.9a10.9,10.9,0,0,0,12.6,1.6c1.2-.7,1.9-2.2,2.8-3.3a21.5,21.5,0,0,0-3.6,1.1c-2.9,1.4-5.7,1.7-8.4,0a6.7,6.7,0,0,1-3.4-6.2h13.8C200.2,170.4,201.4,170.4,201.4,168.4Zm-16.1-.2a6.5,6.5,0,0,1,6.2-7.3c4.1-.2,7,2.8,6.8,7.3Zm-49.8,8.6c-1.9-2.6-4-5.1-6.2-7.8,2-2.5,4.1-4.9,6-7.4.4-.6.3-1.7.5-2.6s-2,.5-2.6,1.2-3.6,4.5-5.6,7c-2-2.6-3.7-4.9-5.6-7-.6-.6-1.8-.7-2.8-1.1a7.1,7.1,0,0,0,.7,2.6c1.8,2.5,3.8,4.8,5.9,7.4-2.1,2.7-4.3,5.2-6.2,7.8-.5.6-.4,1.7-.6,2.6s2-.4,2.5-1c2-2.3,3.9-4.8,6-7.5,2.1,2.7,4,5.1,6,7.4a9,9,0,0,0,2.4,1.2C135.8,178.7,136,177.5,135.5,176.8Zm80.6-8.2c-1.7-.6-3.5-.9-4.9-1.8s-1.8-2-2.6-3.1c1.2-.9,2.4-2.5,3.7-2.6s3.7.8,5.6,1.1,1.4-.2,2.1-.3-.4-1.5-.9-1.7a11.5,11.5,0,0,0-9.4-1,5.3,5.3,0,0,0-3.9,5c-.2,2.4,1.2,4,3.4,4.8s3.7,1.3,5.5,2,3.7,1.4,3.3,3.8-2.6,3.2-4.7,2.9-3.7-1.1-5.6-1.6a11.1,11.1,0,0,0-2.6-.1c.5.8.9,1.9,1.6,2.2s4.2,1.5,6.2,2.2l.2-.4h1.1c3.5-.2,6-2.1,6.4-5S219.8,170,216.1,168.6Zm18.5-.2c-1.6-.6-3.2-.8-4.5-1.6s-2.3-2.4-2.1-3.2a4,4,0,0,1,3.1-2.5c1.9-.1,3.9.8,5.9,1.1a7.6,7.6,0,0,0,2.1-.3c-.3-.6-.4-1.5-.9-1.8a12.1,12.1,0,0,0-9.5-.9,5.2,5.2,0,0,0-3.7,5,4.8,4.8,0,0,0,3.4,4.9c1.7.7,3.5,1.2,5.3,1.8s3.9,1.4,3.3,4-2.8,3.1-5,2.8a39.2,39.2,0,0,1-5.5-1.8,8.1,8.1,0,0,0-2.2,0c.4.7.6,1.8,1.2,2.1,2.1,1,4.4,1.6,6.6,2.4,4.2-.4,7-2.2,7.6-5S239,169.9,234.6,168.4Zm-56.5-9.5a21.9,21.9,0,0,0-4.8,2.5c-.7.4-1.1,1.3-2,2.4a28.2,28.2,0,0,0-.2-3.4c-.2-.6-.9-1-1.3-1.5s-1.4,1-1.4,1.6q-.2,8.9,0,17.7c0,.6,1,1.1,1.5,1.6s1.1-1.1,1.2-1.6,0-3.9,0-5.8c.1-6.4,1.6-8.5,7.6-11,.5-.2.8-1,1.2-1.5S178.5,158.7,178.1,158.9Z"/><path class="cls-4" d="M118.2,119.4c2.7-4.2,2.5-8-.8-12a25.1,25.1,0,0,1,3.4.3c12,2.5,19.5,13.4,17.8,25.9-1.4,10.9-11.9,19.4-23.3,19a22.6,22.6,0,0,1-21.6-22.1c-.3-11.8-.1-23.6-.1-35.4,0-3.7,2.4-6.1,5.8-6.1a5.7,5.7,0,0,1,6.2,5.7c.2,3.9.2,7.8.1,11.8a5.2,5.2,0,0,1-1.1,2.4,8.8,8.8,0,0,0-.1,9.5,11.3,11.3,0,0,1,1.1,4.1c.2,2.3.1,4.6.1,6.9,0,5.8,3.8,10.4,9,11a10.6,10.6,0,0,0,12-8.3c1.3-5.1-1.7-10.3-7.1-12.3A6.2,6.2,0,0,0,118.2,119.4Z"/><path class="cls-4" d="M236.4,136.4c4.4,0,6.4-2.2,6-6.7a18.9,18.9,0,0,0-24.3-16.8c-8.2,2.2-13.6,9.1-14.5,18.1s3.5,16.7,10.7,20.2,18.3,2.7,23.9-2.4a4.6,4.6,0,0,0,.8-6.1c-1.3-1.8-3.7-2.2-6-1a23,23,0,0,1-4.4,2.3c-6.8,2.4-13.4-1.5-13.6-7.3l3-.2Zm-21.6-6.8a8.5,8.5,0,0,1,8.2-8.7c4.6-.3,8.1,3.2,8.6,8.7Z"/><path class="cls-4" d="M187.5,147c-3.3,3.9-7.1,6.3-12,6.1-7.2-.1-12.3-4.6-12.7-11.8s-.4-15.6-.4-23.4a5.5,5.5,0,0,1,5.6-5.7c3.1.1,5.3,2.4,5.4,5.9.1,5.5-.1,10.9,0,16.4.1,3.4.6,6.6,4.3,8.1s10-1.3,10.1-7.4,0-11.1.1-16.7c0-3.9,2.2-6.3,5.5-6.3s5.5,2.5,5.5,6.4v27.1c0,4.3-1.6,6.6-4.8,7S188.8,151.5,187.5,147Z"/><path class="cls-4" d="M155.8,121.4c0,8.2,0,16.5-.1,24.8,0,3.8-1.8,6-4.8,6.4s-6-1.8-6-5.1c-.1-17.5,0-35.1,0-52.7a5,5,0,0,1,4.8-5.1,4.9,4.9,0,0,1,5.7,4.4c.4,3.5.3,7,.4,10.5Z"/><path class="cls-4" d="M160.9,162.5a14.4,14.4,0,0,0-6-3.7c-4-1.3-7,1-9.8,3.9-.2-.6-.2-.9-.3-1.2l-1.5-2.6c-.4.9-1.1,1.8-1.1,2.6-.1,7.6-.1,15.1,0,22.7,0,.7.9,1.4,1.4,2.1s1.1-1.4,1.2-2.1c.1-2.6,0-5.2,0-8.3,5.6,4.9,11,5.3,15,1.6S164.4,166.6,160.9,162.5Zm-8.4,15.2c-4.2,0-7.7-3.8-7.7-8.6a8,8,0,0,1,7.7-8.1c4.4-.1,7.6,3.4,7.6,8.5S156.9,177.7,152.5,177.7Z"/><path class="cls-4" d="M113,170.3c.9,0,2.4-1.1,2.4-1.8.6-5.7-5-10.8-10.7-9.9a9.6,9.6,0,0,0-8.3,7.5c-1.2,4.7-.2,8.8,3.7,12a10.9,10.9,0,0,0,11.8.6,8.7,8.7,0,0,0,2.4-3c-1.4-1.7-2.4.3-3.4.8-5.5,3.1-11.6.1-11.7-6.1h2.7C105.6,170.4,109.3,170.5,113,170.3Zm-10.9-8.2c2.1-1.7,4.5-1.6,6.8-.5s3.5,3.6,3.7,6.5H99.2C98.8,165.4,100.1,163.6,102.1,162.1Z"/><path class="cls-4" d="M201.4,168.4a9.6,9.6,0,0,0-17.9-5.1c-2.6,4.4-2,10.5,1.5,13.9a10.9,10.9,0,0,0,12.6,1.6c1.2-.7,1.9-2.2,2.8-3.3a21.5,21.5,0,0,0-3.6,1.1c-2.9,1.4-5.7,1.7-8.4,0a6.7,6.7,0,0,1-3.4-6.2h13.8C200.2,170.4,201.4,170.4,201.4,168.4Zm-16.1-.2a6.5,6.5,0,0,1,6.2-7.3c4.1-.2,7,2.8,6.8,7.3Z"/><path class="cls-4" d="M125.8,169.1c-2.1-2.6-4.1-4.9-5.9-7.4-.5-.7-.4-1.7-.6-2.6s2.1.5,2.7,1.1c1.9,2.1,3.6,4.4,5.6,7,2-2.5,3.7-4.9,5.7-7s1.6-.8,2.5-1.2-.1,2-.6,2.6c-1.8,2.6-3.9,4.9-5.9,7.4,2.2,2.7,4.3,5.2,6.2,7.8.5.7.3,1.9.4,2.9s-1.9-.6-2.4-1.3c-2-2.3-3.9-4.7-6-7.4-2.1,2.7-4,5.2-6,7.5a6.3,6.3,0,0,1-2.5,1c.2-.9.1-2,.6-2.6C121.5,174.3,123.6,171.8,125.8,169.1Z"/><path class="cls-4" d="M212.9,180.4a65,65,0,0,1-6.2-2.2c-.7-.3-1.1-1.4-1.6-2.2a11.1,11.1,0,0,1,2.6.1c1.9.5,3.7,1.4,5.6,1.6s4.2-.5,4.7-2.9-1.5-3.2-3.3-3.8l-5.5-1.9c-2.1-.9-3.5-2.5-3.4-4.9a5.3,5.3,0,0,1,3.8-5,11.7,11.7,0,0,1,9.5.9c.5.3.6,1.2,1,1.8a8.3,8.3,0,0,1-2.2.3c-1.8-.3-3.8-1.3-5.6-1.1s-2.5,1.7-3.7,2.6c.8,1.1,1.5,2.5,2.6,3.1s3.2,1.2,4.9,1.8c3.7,1.4,5,3.3,4.6,6.4s-3,4.8-6.5,5h-1.1Z"/><path class="cls-4" d="M232.2,180.5a66.3,66.3,0,0,1-6.7-2.5c-.6-.2-.9-1.4-1.2-2.1a8.1,8.1,0,0,1,2.2,0c1.9.6,3.7,1.6,5.5,1.8s4.5-.2,5-2.8-1.5-3.3-3.4-4-3.5-1.1-5.2-1.8a4.8,4.8,0,0,1-3.4-4.9,5,5,0,0,1,3.8-5,11.9,11.9,0,0,1,9.4.9c.5.3.6,1.2.9,1.8a7.6,7.6,0,0,1-2.1.3c-2-.3-4-1.2-5.9-1.1s-2.9,1.4-3.1,2.5,1.1,2.5,2.1,3.2a23.2,23.2,0,0,0,4.4,1.6c4.4,1.5,5.9,3.5,5.2,7S236.3,180,232.2,180.5Z"/><path class="cls-4" d="M171.3,163.8c.9-1.1,1.3-2,2-2.4a27.7,27.7,0,0,1,4.8-2.6c.4-.1,1.2.7,1.8,1.1s-.7,1.3-1.2,1.5c-6.1,2.5-7.6,4.6-7.6,11a56.1,56.1,0,0,1-.1,5.8c0,.6-.7,1.1-1.1,1.6s-1.4-1-1.5-1.5c-.1-6-.1-11.9,0-17.8,0-.6.9-1.1,1.4-1.6s1.1.9,1.2,1.5A15.2,15.2,0,0,1,171.3,163.8Z"/><circle class="cls-4" cx="111.1" cy="113.5" r="5.1"/></g></svg>